 <svg  version="1.0" xmlns="http://www.w3.org/2000/svg"  width="300.000000pt" height="450.000000pt" viewBox="0 0 300.000000 450.000000"  preserveAspectRatio="xMidYMid meet">  <g transform="translate(0.000000,450.000000) scale(0.100000,-0.100000)" fill="#858a87" stroke="none"> <path d="M1295 3898 c-99 -101 -227 -240 -285 -309 -406 -488 -714 -1055 -812 -1490 -20 -91 -23 -131 -23 -314 0 -198 2 -216 27 -310 33 -120 118 -295 187 -386 190 -250 507 -444 852 -521 148 -33 370 -33 518 0 288 65 526 190 725 382 163 157 260 323 319 544 19 71 22 108 22 291 0 183 -3 223 -23 313 -85 379 -322 845 -659 1298 -131 175 -254 316 -448 512 -129 130 -176 172 -195 172 -19 0 -67 -42 -205 -182z m386 -75 c163 -167 285 -303 339 -381 l23 -34 -122 -122 -121 -121 0 -295 0 -295 -135 -135 -135 -135 0 332 0 331 35 21 c101 59 99 197 -5 252 -43 24 -85 24 -130 1 -103 -52 -106 -194 -5 -253 l35 -21 0 -436 0 -437 -120 120 -120 120 0 279 0 280 -187 187 c-183 185 -186 188 -171 211 27 41 168 220 231 293 70 80 398 415 407 415 4 0 85 -80 181 -177z m450 -525 c72 -91 224 -327 312 -486 152 -273 254 -531 299 -753 29 -146 32 -392 6 -510 -71 -320 -254 -562 -563 -744 -93 -55 -245 -125 -271 -125 -11 0 -14 22 -14 108 l0 107 129 129 128 128 31 -16 c94 -49 205 22 205 131 0 101 -116 173 -203 125 -56 -30 -82 -77 -78 -139 l3 -53 -137 -137 -138 -138 -2 -135 -3 -135 -70 -18 c-38 -10 -107 -20 -152 -24 l-83 -6 0 198 0 197 375 376 c364 364 375 375 400 364 64 -29 153 -4 191 54 23 35 23 113 0 148 -82 126 -280 55 -261 -94 l5 -45 -355 -355 -355 -355 0 154 0 155 165 162 165 162 0 144 0 143 172 172 c149 149 174 170 191 162 32 -18 104 -12 141 10 118 74 66 261 -73 261 -98 0 -167 -85 -143 -174 l10 -34 -179 -178 -179 -179 0 -145 0 -145 -135 -135 -135 -135 0 355 0 355 165 165 165 165 0 299 0 299 107 108 c59 60 110 109 115 109 4 0 26 -24 49 -52z m-981 -712 l0 -280 155 -156 155 -156 0 -154 0 -155 -225 225 -225 225 0 110 0 110 -75 75 c-75 75 -75 76 -64 109 45 127 -77 242 -197 185 -47 -23 -74 -70 -74 -132 0 -43 5 -57 31 -87 38 -43 95 -63 143 -48 33 10 35 9 105 -61 l71 -71 0 -110 0 -110 255 -255 255 -255 0 -155 0 -155 -339 339 -339 339 5 56 c7 94 -47 155 -137 155 -88 0 -144 -61 -137 -152 3 -41 10 -59 32 -82 40 -42 93 -57 147 -41 l41 13 221 -221 221 -221 -188 0 c-187 0 -188 0 -196 23 -13 34 -66 75 -106 83 -46 8 -99 -11 -130 -47 -86 -103 0 -259 131 -234 38 7 100 55 109 86 6 18 17 19 228 19 l222 0 107 -107 108 -108 0 -287 0 -288 -39 0 c-122 0 -352 65 -512 146 -462 231 -696 607 -675 1084 7 158 30 274 90 454 84 253 215 512 409 809 l70 109 174 -174 173 -173 0 -279z m400 584 c21 -21 26 -69 10 -100 -23 -43 -106 -44 -129 -1 -31 58 2 121 64 121 22 0 43 -8 55 -20z m-759 -519 c17 -13 23 -29 23 -56 0 -70 -79 -101 -129 -50 -30 30 -32 64 -4 99 25 32 75 35 110 7z m1545 -114 c38 -33 37 -81 -1 -115 -66 -56 -156 21 -114 99 22 42 76 49 115 16z m-1651 -433 c8 -4 23 -20 31 -36 26 -51 -6 -108 -61 -108 -48 0 -79 29 -79 75 0 57 52 90 109 69z m1725 -169 c55 -28 52 -105 -4 -131 -29 -14 -37 -15 -62 -3 -55 27 -57 109 -4 136 32 16 35 16 70 -2z m-1701 -442 c11 -10 24 -32 27 -50 5 -26 1 -37 -19 -57 -52 -52 -131 -22 -131 49 0 65 73 99 123 58z m1596 -178 c30 -30 32 -64 4 -99 -51 -65 -157 -6 -128 72 21 57 82 70 124 27z"/> </g> </svg> 