<?xml version="1.0" standalone="no"?>
<!DOCTYPE svg PUBLIC "-//W3C//DTD SVG 20010904//EN"
 "http://www.w3.org/TR/2001/REC-SVG-20010904/DTD/svg10.dtd">
<svg version="1.0" xmlns="http://www.w3.org/2000/svg"
 width="203.000000pt" height="245.000000pt" viewBox="0 0 203.000000 245.000000"
 preserveAspectRatio="xMidYMid meet">
<metadata>
Created by potrace 1.10, written by Peter Selinger 2001-2011
</metadata>
<g transform="translate(0.000000,245.000000) scale(0.100000,-0.100000)"
fill="#000000" stroke="none">
<path d="M903 2328 c-111 -107 -296 -314 -399 -448 -273 -354 -441 -758 -420
-1010 3 -41 9 -91 12 -110 7 -40 56 -186 75 -221 59 -113 205 -275 310 -345
127 -84 292 -137 472 -150 l87 -7 0 139 0 140 230 227 c126 126 235 225 240
222 6 -4 9 -3 8 2 -1 4 4 18 12 30 12 18 20 20 64 16 46 -5 54 -2 78 22 56 56
43 146 -27 179 -64 31 -155 -24 -155 -93 0 -33 -16 -51 -220 -253 -121 -120
-222 -218 -225 -218 -3 0 -5 37 -5 82 l0 82 115 112 115 112 0 86 0 86 106
106 c83 82 111 103 126 98 33 -10 84 5 112 33 37 37 37 109 0 146 -34 34 -81
43 -127 23 -38 -15 -54 -41 -64 -102 -4 -23 -35 -61 -124 -148 l-119 -117 0
-86 0 -85 -65 -64 c-36 -35 -67 -64 -70 -64 -3 0 -5 86 -5 191 l0 190 115 115
115 116 0 192 0 192 62 63 62 62 29 -33 c16 -18 41 -51 55 -73 14 -22 28 -42
31 -45 9 -8 92 -131 113 -168 53 -95 129 -255 158 -337 72 -197 77 -405 12
-555 -35 -82 -56 -120 -65 -120 -6 0 -7 -3 -4 -6 20 -20 -148 -206 -243 -269
-55 -36 -170 -95 -185 -95 -3 0 -5 22 -5 48 0 47 2 50 79 125 l79 77 46 -6
c59 -9 100 9 120 51 20 41 20 56 1 101 -20 47 -73 71 -126 55 -43 -13 -79 -53
-79 -86 0 -16 -33 -56 -103 -126 l-102 -104 3 -122 3 -122 52 16 c269 79 499
284 597 532 60 154 71 364 27 532 -71 271 -236 558 -505 882 -95 114 -363 387
-380 387 -7 0 -51 -37 -99 -82z m257 -185 c84 -87 157 -168 163 -180 9 -20 2
-31 -66 -100 l-77 -77 0 -191 -1 -190 -69 -75 -70 -75 0 192 0 193 24 15 c44
29 60 113 28 151 -52 64 -154 58 -187 -11 -24 -52 -19 -90 16 -130 l31 -35 2
-250 1 -249 -62 61 -63 62 0 177 0 177 -121 120 c-80 81 -118 125 -113 134 11
18 34 45 81 97 23 25 43 50 43 54 0 10 272 287 281 287 3 0 75 -71 159 -157z
m-515 -477 l106 -104 -5 -149 c-2 -81 -1 -162 1 -180 4 -24 31 -57 109 -134
l103 -102 -2 -68 c-1 -38 -4 -69 -7 -69 -3 0 -60 55 -127 123 l-123 123 0 63
c0 62 -1 63 -54 119 -42 45 -54 66 -59 99 -6 47 -32 89 -62 97 -11 3 -39 6
-62 6 -38 0 -45 -4 -68 -37 -29 -43 -32 -81 -10 -123 19 -37 43 -50 95 -50 35
0 49 -6 86 -42 43 -41 44 -43 44 -108 l0 -66 169 -170 170 -169 4 -67 c3 -38
2 -68 -1 -68 -3 0 -27 21 -52 48 -26 26 -78 77 -116 113 -38 37 -81 80 -95 95
-14 16 -56 57 -92 91 -53 50 -67 69 -67 92 0 43 -42 88 -90 96 -110 19 -173
-119 -88 -190 28 -24 39 -27 81 -22 l49 4 122 -118 121 -119 -93 0 c-88 0 -93
1 -103 24 -22 48 -115 63 -162 26 -29 -23 -47 -74 -40 -113 6 -30 49 -72 81
-80 32 -7 85 9 113 36 24 21 30 22 162 17 l138 -5 69 -69 70 -69 0 -163 c0
-125 -3 -164 -12 -164 -78 1 -281 58 -340 96 -21 13 -40 24 -43 24 -16 0 -157
114 -205 167 -60 64 -146 224 -175 323 -69 239 11 533 249 905 28 44 55 85 61
92 30 36 36 43 40 43 2 0 52 -47 110 -104z m382 88 c3 -8 -2 -23 -11 -32 -14
-15 -18 -15 -31 -1 -9 9 -13 23 -9 32 8 21 43 22 51 1z m-527 -363 c0 -24 -13
-33 -34 -25 -27 10 -20 44 9 44 18 0 25 -5 25 -19z m1055 -62 c5 -14 2 -25 -6
-30 -19 -12 -25 -11 -39 6 -10 12 -10 18 0 30 18 21 38 19 45 -6z m-1111 -298
c9 -14 -4 -41 -19 -41 -17 0 -38 27 -30 40 8 12 42 13 49 1z m1180 -108 c13
-32 -21 -46 -44 -18 -10 12 -10 18 0 29 13 17 36 11 44 -11z m-1166 -281 c3
-18 -1 -22 -22 -22 -19 0 -26 5 -26 18 0 39 43 43 48 4z m1080 -110 c17 -12 4
-42 -18 -42 -23 0 -34 16 -26 35 6 17 24 19 44 7z"/>
</g>
</svg>
