 <svg  version="1.0" xmlns="http://www.w3.org/2000/svg"  width="300.000000pt" height="450.000000pt" viewBox="0 0 300.000000 450.000000"  preserveAspectRatio="xMidYMid meet">  <g transform="translate(0.000000,450.000000) scale(0.100000,-0.100000)" fill="#95f9a6" stroke="none"> <path d="M1305 3908 c-265 -269 -433 -474 -621 -759 -256 -390 -423 -756 -491 -1079 -14 -67 -18 -129 -17 -290 0 -190 2 -212 27 -305 32 -120 117 -295 186 -386 189 -248 505 -442 847 -520 143 -32 387 -32 528 0 283 65 521 191 718 379 162 156 260 321 315 531 35 133 43 377 18 536 -60 388 -318 912 -692 1407 -112 149 -251 306 -433 491 -126 128 -171 167 -190 167 -19 0 -65 -40 -195 -172z m376 -85 c159 -163 303 -325 346 -389 l16 -25 -121 -122 -122 -122 0 -295 0 -294 -132 -135 c-73 -75 -135 -137 -138 -138 -3 -2 -4 149 -2 334 l3 338 32 15 c72 34 100 134 55 200 -45 65 -121 86 -188 52 -104 -52 -106 -201 -2 -253 l32 -17 3 -441 c1 -242 0 -440 -3 -438 -3 1 -58 56 -122 123 l-118 120 0 278 0 279 -182 184 c-101 101 -184 188 -186 192 -3 9 107 155 211 281 71 85 425 450 437 450 4 0 85 -80 181 -177z m461 -538 c187 -250 393 -617 502 -893 159 -404 166 -790 21 -1088 -129 -266 -384 -485 -712 -613 l-53 -21 0 113 0 112 129 129 128 128 31 -16 c94 -49 205 22 205 131 0 101 -116 173 -203 125 -57 -31 -83 -77 -78 -139 l5 -52 -139 -138 -138 -138 0 -137 0 -136 -47 -10 c-57 -12 -161 -29 -220 -36 l-43 -4 0 202 0 201 378 377 c354 354 378 376 396 363 48 -36 154 -8 192 51 23 35 23 113 0 148 -41 63 -131 84 -193 46 -49 -30 -68 -66 -68 -132 l0 -57 -354 -356 c-195 -195 -355 -355 -355 -355 -1 0 0 71 2 158 l3 159 165 164 166 164 -1 140 -1 140 171 172 172 173 42 -15 c156 -52 259 169 119 255 -107 67 -254 -38 -214 -153 10 -31 10 -32 -170 -212 l-180 -180 0 -145 0 -144 -132 -135 c-73 -75 -135 -137 -138 -138 -3 -2 -4 158 -2 355 l2 358 165 164 165 165 0 300 0 300 112 112 c62 62 115 109 119 105 3 -4 26 -34 51 -67z m-1164 -247 l172 -173 0 -280 0 -280 154 -155 154 -155 4 -157 3 -158 -227 227 -228 228 0 110 0 110 -77 77 c-75 76 -76 77 -63 107 38 92 -33 201 -130 201 -120 0 -188 -145 -109 -235 38 -43 95 -63 143 -48 33 10 35 9 105 -61 l71 -71 0 -110 0 -110 254 -255 255 -255 3 -158 c2 -86 1 -156 -2 -154 -3 1 -156 155 -341 342 l-337 340 5 55 c7 93 -47 154 -137 154 -89 0 -144 -61 -137 -153 3 -47 9 -59 40 -87 43 -40 94 -52 145 -32 l37 14 222 -226 c123 -124 223 -225 223 -225 0 0 -86 0 -190 0 -182 0 -190 1 -196 20 -10 32 -54 74 -91 86 -90 29 -183 -40 -183 -136 0 -88 81 -157 165 -141 40 8 93 49 106 83 l9 23 222 0 223 0 107 -107 108 -108 0 -290 1 -289 -43 2 c-70 4 -205 31 -292 59 -370 115 -684 377 -807 671 -173 416 -92 894 255 1507 58 101 224 365 230 365 1 0 80 -78 174 -172z m572 132 c25 -25 26 -80 1 -111 -37 -45 -120 -23 -135 37 -7 26 15 79 36 87 31 13 79 6 98 -13z m-752 -526 c28 -31 28 -64 1 -98 -16 -20 -29 -26 -59 -26 -65 0 -101 66 -64 118 33 47 82 49 122 6z m1543 -113 c16 -16 29 -39 29 -51 0 -30 -53 -80 -85 -80 -36 0 -75 41 -75 80 0 39 39 80 75 80 16 0 38 -12 56 -29z m-1642 -438 c56 -47 24 -133 -49 -133 -71 0 -104 76 -55 125 29 30 74 33 104 8z m1710 -158 c48 -24 56 -81 16 -120 -49 -49 -125 -16 -125 55 0 30 6 43 26 59 32 25 46 26 83 6z m-1694 -450 c30 -30 32 -64 4 -99 -47 -59 -149 -15 -135 59 13 63 86 86 131 40z m1590 -170 c49 -48 16 -125 -54 -125 -61 0 -95 55 -67 109 25 48 82 56 121 16z"/> </g> </svg> 